<svg width="155" height="155" viewBox="0 0 155 155" fill="none" xmlns="http://www.w3.org/2000/svg">
<rect width="155" height="155" rx="50" fill="#1C1C1C"/>
<path d="M66.875 67.8875L75.1437 72.6125C76.1562 73.2875 76.8312 74.3 76.8312 75.4812V85.1C76.8312 86.2812 76.1562 87.4625 75.1437 87.9687L66.875 92.8625C65.8625 93.5375 64.5125 93.5375 63.5 92.8625L55.2312 88.1375C54.2187 87.4625 53.5437 86.45 53.5437 85.2687V75.65C53.5437 74.4687 54.2187 73.2875 55.2312 72.7812L63.5 68.0562C64.5125 67.2125 65.8625 67.2125 66.875 67.8875Z" fill="#2F4BFF"/>
<path d="M90.8375 51.1812C90.5 51.0125 90.3313 51.0125 89.9938 51.1812L82.9062 55.2312C82.5687 55.4 82.5687 55.7375 82.5687 55.9062V64.0062C82.5687 64.3437 82.7375 64.5125 82.9062 64.6812L89.9938 68.7312C90.3313 68.9 90.5 68.9 90.8375 68.7312L97.925 64.6812C98.2625 64.5125 98.2625 64.175 98.2625 64.0062V55.9062C98.2625 55.5687 98.0938 55.4 97.925 55.2312L90.8375 51.1812ZM91.85 49.8312L98.9375 53.8812C99.7812 54.3875 100.287 55.2312 100.287 56.075V64.175C100.287 65.0187 99.7812 65.8625 98.9375 66.3687L91.85 70.4187C91.0062 70.925 90.1625 70.925 89.3187 70.4187L82.2312 66.3687C81.3875 65.8625 80.8812 65.0187 80.8812 64.175V56.075C80.8812 55.2312 81.3875 54.3875 82.2312 53.8812L89.3187 49.8312C89.9937 49.325 91.0062 49.325 91.85 49.8312ZM95.5625 95.9L88.475 99.95V108.05L95.5625 112.1L102.65 108.05V99.95L95.5625 95.9ZM104.338 96.9125C105.35 97.5875 106.025 98.6 106.025 99.7812V107.881C106.025 109.062 105.35 110.244 104.338 110.75L97.25 115.137C96.2375 115.812 94.8875 115.812 93.875 115.137L86.7875 111.087C85.775 110.412 85.1 109.4 85.1 108.219V100.119C85.1 98.9375 85.775 97.7562 86.7875 97.25L93.875 93.2C94.8875 92.525 96.2375 92.525 97.25 93.2L104.338 96.9125ZM41.5625 40.8875V45.6125L45.7812 47.975L50 45.6125V40.8875L45.7812 38.525L41.5625 40.8875ZM52.025 38.1875C52.8688 38.6937 53.375 39.5375 53.375 40.3812V46.1187C53.375 46.9625 52.8688 47.8062 52.025 48.3125L46.9625 51.1812C46.1187 51.6875 45.275 51.6875 44.4312 51.1812L39.3687 48.3125C38.6937 47.8062 38.1875 46.9625 38.1875 46.1187V40.3812C38.1875 39.5375 38.6938 38.6937 39.5375 38.1875L44.6 35.3187C45.4438 34.8125 46.2875 34.8125 47.1313 35.3187L52.025 38.1875ZM43.25 105.012L38.1875 107.881V113.619L43.25 116.487L48.3125 113.619V107.881L43.25 105.012ZM44.0938 103.494L49.1562 106.362C49.6625 106.7 50 107.206 50 107.881V113.619C50 114.294 49.6625 114.8 49.1562 115.137L44.0938 118.006C43.5875 118.344 42.9125 118.344 42.4062 118.006L37.3438 115.137C36.8375 114.8 36.5 114.294 36.5 113.619V107.881C36.5 107.206 36.8375 106.7 37.3438 106.362L42.4062 103.494C42.9125 103.156 43.5875 103.156 44.0938 103.494Z" fill="white"/>
<path d="M65.525 104.844L58.9437 111.425C58.775 111.594 58.6062 111.594 58.2687 111.594H48.9875C48.4812 111.594 48.1437 111.256 48.1437 110.75C48.1437 110.244 48.4812 109.906 48.9875 109.906H57.9313L64.175 103.662V96.4062C64.175 95.9 64.5125 95.5625 65.0187 95.5625C65.525 95.5625 65.8625 95.9 65.8625 96.4062V103.156H83.75C84.2563 103.156 84.5938 103.494 84.5938 104C84.5938 104.506 84.2563 104.844 83.75 104.844H65.525ZM64.3438 58.775L52.8688 48.8188C52.5313 48.4813 52.5313 47.975 52.7 47.6375C53.0375 47.3 53.5437 47.3 53.8812 47.4688L65.525 57.425H78.6875C79.1938 57.425 79.5312 57.7625 79.5312 58.2687C79.5312 58.775 79.1938 59.1125 78.6875 59.1125H66.0312V65.1875C66.0312 65.6937 65.6938 66.0312 65.1875 66.0312C64.6812 66.0312 64.3438 65.6937 64.3438 65.1875V58.775ZM107.375 99.7812C106.869 99.7812 106.531 99.4437 106.531 98.9375C106.531 98.4312 106.869 98.0937 107.375 98.0937H116.656C117.163 98.0937 117.5 98.4312 117.5 98.9375C117.5 99.4437 117.163 99.7812 116.656 99.7812H107.375ZM102.144 53.8812C101.806 54.2187 101.3 54.2187 100.963 54.05C100.625 53.7125 100.625 53.2063 100.794 52.8688L110.919 41.0563C111.256 40.7188 111.762 40.7188 112.1 40.8875C112.437 41.225 112.438 41.7313 112.269 42.0688L102.144 53.8812ZM39.875 76.1562C39.3687 76.1562 39.0312 75.8187 39.0312 75.3125C39.0312 74.8062 39.3687 74.4687 39.875 74.4687H51.6875C52.1938 74.4687 52.5312 74.8062 52.5312 75.3125C52.5312 75.8187 52.1938 76.1562 51.6875 76.1562H39.875ZM96.4062 91.3437C96.4062 91.85 96.0688 92.1875 95.5625 92.1875C95.0562 92.1875 94.7188 91.85 94.7188 91.3437V80.375C94.7188 79.8687 95.0562 79.5312 95.5625 79.5312C96.0688 79.5312 96.4062 79.8687 96.4062 80.375V91.3437Z" fill="white"/>
</svg>
